<?xml version="1.0" encoding="UTF-8"?>
<svg id="Layer_1" xmlns="http://www.w3.org/2000/svg" baseProfile="tiny" version="1.2" viewBox="0 0 1662.238 338.983">
  <!-- Generator: Adobe Illustrator 30.2.1, SVG Export Plug-In . SVG Version: 2.1.1 Build 1)  -->
  <g id="Logotype">
    <g id="Wordmark">
      <path d="M944.989,125.805h-67.419v7.153c21.09,0,24.48,4.519,24.48,31.263v48.211c0,26.739-3.39,31.636-24.48,31.636-16.192-2.26-27.117-10.925-42.184-27.495l-17.322-18.83c23.349-4.146,35.778-18.834,35.778-35.409,0-20.712-17.7-36.53-50.845-36.53h-66.29v7.153c21.09,0,24.48,4.519,24.48,31.263v48.211c0,26.739-3.39,31.636-24.48,31.636v7.153h74.951v-7.153c-21.09,0-24.48-4.897-24.48-31.636v-13.559h6.401l41.806,52.349h109.603c53.861,0,77.21-28.621,77.21-62.9s-23.35-62.517-77.21-62.517ZM787.179,187.192v-50.089h15.441c16.948,0,24.484,11.673,24.484,25.232,0,13.184-7.535,24.857-24.484,24.857h-15.441ZM946.119,239.549h-2.637c-13.559,0-15.441-3.39-15.441-20.716v-81.73h18.078c39.168,0,46.325,28.621,46.325,50.845,0,22.976-7.157,51.601-46.325,51.601Z" fill="#32373c"/>
      <path d="M526.927,201.133l25.988-76.841c7.535-22.219,4.146-28.621-19.96-28.621v-7.536h70.809v7.536c-23.727,0-29.377,5.649-38.794,33.145l-42.94,128.811h-4.893l-38.42-117.891-39.168,117.891h-4.898l-41.806-128.811c-9.039-27.495-15.067-33.145-36.912-33.145v-7.536h83.616v7.536c-22.224,0-28.251,5.271-20.338,28.621l25.231,76.841,38.042-112.997h7.157l37.286,112.997Z" fill="#32373c"/>
      <path d="M654.978,256.119c-41.427,0-75.328-30.507-75.328-67.798,0-36.908,33.901-67.419,75.328-67.419s75.329,30.511,75.329,67.419c0,37.291-33.897,67.798-75.329,67.798ZM654.978,132.584c-34.648,0-46.703,31.259-46.703,55.738,0,24.862,12.055,55.747,46.703,55.747,35.031,0,47.082-30.885,47.082-55.747,0-24.48-12.051-55.738-47.082-55.738Z" fill="#32373c"/>
      <path d="M1115.224,243.691v7.531h-86.249v-7.531c25.236,0,29.755-6.401,29.755-44.07v-60.258c0-37.668-4.519-43.691-29.755-43.691v-7.536h77.962c38.794,0,60.266,19.965,60.266,46.708,0,25.988-21.472,46.325-60.266,46.325h-21.468v18.452c0,37.668,4.519,44.07,29.755,44.07ZM1106.936,101.694h-21.468v65.538h21.468c21.094,0,30.885-14.688,30.885-32.389,0-18.078-9.791-33.149-30.885-33.149Z" fill="#32373c"/>
      <path d="M1425.946,215.822l-1.882,6.779c-3.39,12.429-7.535,16.948-34.274,16.948h-5.275c-19.582,0-22.972-4.519-22.972-31.263v-17.322c29.377,0,31.637,2.634,31.637,22.22h7.157v-56.12h-7.157c0,19.586-2.26,22.219-31.637,22.219v-42.179h20.712c26.744,0,30.885,4.52,34.275,16.948l1.886,7.153h6.023l-2.634-35.4h-110.733v7.153c21.09,0,24.48,4.519,24.48,31.263v48.211c0,24.462-2.881,30.624-19.508,31.502-15.805-2.412-26.656-11.034-41.501-27.361l-17.327-18.83c23.354-4.146,35.783-18.834,35.783-35.409,0-20.712-17.7-36.53-50.845-36.53h-66.289v7.153c21.089,0,24.479,4.519,24.479,31.263v48.211c0,26.739-3.39,31.636-24.479,31.636v7.153h74.95v-7.153c-21.089,0-24.479-4.897-24.479-31.636v-13.559h6.401l41.806,52.349h154.794l2.26-35.4h-5.649ZM1226.335,187.192v-50.089h15.44c16.948,0,24.484,11.673,24.484,25.232,0,13.184-7.535,24.857-24.484,24.857h-15.44Z" fill="#32373c"/>
      <path d="M1502.405,256.119c-15.066,0-28.251-7.909-33.901-12.807-1.882,1.886-5.271,7.536-6.023,12.807h-7.157v-51.975h7.531c3.016,24.857,20.338,39.546,42.562,39.546,12.051,0,21.846-6.78,21.846-18.078,0-9.791-8.666-17.327-24.106-24.48l-21.468-10.169c-15.067-7.161-26.365-19.59-26.365-36.16,0-18.078,16.948-33.519,40.302-33.519,12.429,0,22.971,4.52,29.377,9.791,1.881-1.508,3.763-5.654,4.898-10.173h7.153v44.448h-7.909c-2.638-17.704-12.428-32.393-32.388-32.393-10.547,0-20.342,6.028-20.342,15.445,0,9.791,7.909,15.062,25.992,23.35l20.712,10.169c18.083,8.661,25.236,22.602,25.236,33.901,0,23.727-20.716,40.298-45.947,40.298Z" fill="#32373c"/>
      <path d="M1616.291,256.119c-15.066,0-28.251-7.909-33.901-12.807-1.882,1.886-5.271,7.536-6.024,12.807h-7.157v-51.975h7.531c3.016,24.857,20.338,39.546,42.562,39.546,12.051,0,21.846-6.78,21.846-18.078,0-9.791-8.666-17.327-24.106-24.48l-21.468-10.169c-15.066-7.161-26.365-19.59-26.365-36.16,0-18.078,16.948-33.519,40.302-33.519,12.429,0,22.971,4.52,29.377,9.791,1.882-1.508,3.764-5.654,4.894-10.173h7.157v44.448h-7.909c-2.638-17.704-12.429-32.393-32.389-32.393-10.547,0-20.342,6.028-20.342,15.445,0,9.791,7.909,15.062,25.992,23.35l20.712,10.169c18.083,8.661,25.236,22.602,25.236,33.901,0,23.727-20.716,40.298-45.947,40.298Z" fill="#32373c"/>
    </g>
    <g id="W_Mark">
      <path d="M169.492,10.169c21.513,0,42.377,4.211,62.012,12.516,9.438,3.992,18.542,8.934,27.059,14.687,8.439,5.701,16.374,12.249,23.586,19.461,7.212,7.212,13.76,15.148,19.461,23.586,5.754,8.517,10.695,17.621,14.688,27.059,8.305,19.636,12.516,40.499,12.516,62.012s-4.211,42.377-12.516,62.012c-3.992,9.438-8.934,18.542-14.688,27.059-5.701,8.439-12.248,16.374-19.461,23.586-7.212,7.212-15.148,13.76-23.586,19.461-8.517,5.754-17.621,10.695-27.059,14.687-19.635,8.305-40.499,12.516-62.012,12.516s-42.377-4.211-62.012-12.516c-9.438-3.992-18.542-8.934-27.059-14.687-8.439-5.701-16.374-12.249-23.586-19.461-7.212-7.212-13.76-15.148-19.461-23.586-5.754-8.517-10.695-17.621-14.687-27.059-8.305-19.635-12.516-40.499-12.516-62.012s4.211-42.377,12.516-62.012c3.992-9.438,8.934-18.542,14.687-27.059,5.701-8.438,12.249-16.374,19.461-23.586,7.212-7.212,15.148-13.76,23.586-19.461,8.517-5.754,17.621-10.695,27.059-14.687,19.635-8.305,40.499-12.516,62.012-12.516M169.492,0C75.884,0,0,75.884,0,169.492s75.884,169.492,169.492,169.492,169.492-75.884,169.492-169.492S263.099,0,169.492,0h0Z" fill="#32373c"/>
      <path d="M28.249,169.486c0,55.904,32.487,104.221,79.607,127.113L40.479,112.006c-7.837,17.564-12.23,37.003-12.23,57.481ZM264.842,162.363c0-17.461-6.272-29.546-11.644-38.952-7.16-11.64-13.874-21.488-13.874-33.127,0-12.981,9.844-25.067,23.719-25.067.627,0,1.22.076,1.829.114-25.129-23.025-58.609-37.083-95.38-37.083-49.347,0-92.757,25.32-118.013,63.66,3.316.105,6.441.171,9.09.171,14.77,0,37.645-1.796,37.645-1.796,7.61-.446,8.51,10.74.903,11.639,0,0-7.654.896-16.164,1.342l51.432,152.992,30.914-92.7-22.004-60.292c-7.61-.446-14.814-1.342-14.814-1.342-7.614-.45-6.722-12.085.896-11.639,0,0,23.32,1.796,37.198,1.796,14.77,0,37.648-1.796,37.648-1.796,7.614-.446,8.51,10.74.9,11.639,0,0-7.662.896-16.164,1.342l51.044,151.826,14.571-46.17c6.474-20.178,10.269-34.473,10.269-46.559ZM171.973,181.841l-42.384,123.138c12.658,3.724,26.04,5.755,39.903,5.755,16.448,0,32.226-2.839,46.906-8.008-.378-.604-.726-1.246-1.014-1.947l-43.411-118.939ZM293.437,101.728c.606,4.498.95,9.324.95,14.523,0,14.327-2.684,30.439-10.744,50.588l-43.138,124.728c41.991-24.481,70.23-69.974,70.23-122.08,0-24.557-6.275-47.642-17.298-67.758Z" fill="#32373c"/>
    </g>
  </g>
</svg>