<svg style="display:none !important;" xmlns="http://www.w3.org/2000/svg">

    <symbol id="device-desktop" viewBox="0 0 44 40">
        <g fill="currentColor">
            <path d="m40 0h-36c-2.2 0-4 1.8-4 4v24c0 2.2 1.8 4 4 4h14v4h-4v4h16v-4h-4v-4h14c2.2 0 4-1.8 4-4v-24c0-2.2-1.8-4-4-4zm0 28h-36v-24h36z"/>
        </g>
    </symbol>

    <symbol id="device-mobile" viewBox="0 0 26 44">
        <g fill="currentColor">
            <path d="m21 0h-16c-2.8 0-5 2.2-5 5v34c0 2.8 2.2 5 5 5h16c2.8 0 5-2.2 5-5v-34c0-2.8-2.2-5-5-5zm-8 42c-1.7 0-3-1.3-3-3s1.3-3 3-3 3 1.3 3 3-1.3 3-3 3zm9-8h-18v-28h18z"/>
        </g>
    </symbol>

    <symbol id="cookie-icon" viewBox="0 0 760.6 800">
        <g fill="currentColor">
            <path d="M753.9,553.6c-36.1-32.6-49.5-83.9-33.3-130.3c3.9-11.1-2.5-23.2-13.9-26.3c-74.3-19.8-111.7-103.2-77.3-171.7
        c6-12-1.1-26.5-14.3-29c-70.9-13.6-114.8-86.4-92.9-155.8c3.4-10.9-2.8-22.5-13.9-25.6C473.2,5,436.7,0,400,0
        C179.4,0,0,179.4,0,400s179.4,400,400,400c154.7,0,292-88.4,358.5-222.4C762.5,569.5,760.6,559.7,753.9,553.6z M400,759.5
        C201.8,759.5,40.5,598.2,40.5,400S201.8,40.5,400,40.5c26.5,0,52.8,2.9,78.4,8.6c-13.7,78.7,32,154.6,105.4,180.6
        c-26,79.9,14,167.8,92.9,200c-11,51.6,4,104.6,38.7,142.8C653.8,685.1,534.7,759.5,400,759.5z"/>
            <path d="M184.6,414.6c-35,0-63.4,28.4-63.4,63.4c0,35,28.4,63.4,63.4,63.4c35,0,63.4-28.4,63.4-63.4
        C248,443.1,219.6,414.6,184.6,414.6z M184.6,500.9c-12.6,0-22.9-10.3-22.9-22.9s10.3-22.9,22.9-22.9c12.6,0,22.9,10.3,22.9,22.9
        S197.2,500.9,184.6,500.9z"/>
            <path d="M443.7,242.5c0-39.9-32.4-72.3-72.3-72.3s-72.3,32.4-72.3,72.3c0,39.9,32.4,72.3,72.3,72.3
        C411.3,314.8,443.7,282.4,443.7,242.5z M339.7,242.5c0-17.5,14.2-31.8,31.8-31.8s31.8,14.2,31.8,31.8s-14.2,31.8-31.8,31.8
        S339.7,260,339.7,242.5z"/>
            <path d="M434.1,500.9c-52.5,0-95.3,42.7-95.3,95.3c0,52.5,42.7,95.3,95.3,95.3s95.3-42.7,95.3-95.3
        C529.4,543.6,486.6,500.9,434.1,500.9z M434.1,650.9c-30.2,0-54.7-24.6-54.7-54.7c0-30.2,24.6-54.7,54.7-54.7
        c30.2,0,54.7,24.6,54.7,54.7C488.8,626.4,464.3,650.9,434.1,650.9z"/>
        </g>
    </symbol>

</svg>
