<?xml version="1.0" encoding="UTF-8"?>
<svg id="Layer_1" xmlns="http://www.w3.org/2000/svg" baseProfile="tiny" version="1.2" viewBox="0 0 338.983 338.983">
  <!-- Generator: Adobe Illustrator 30.2.1, SVG Export Plug-In . SVG Version: 2.1.1 Build 1)  -->
  <circle cx="169.492" cy="169.492" r="166.5" fill="#fff"/>
  <g id="W_Mark">
    <path d="M169.492,10.169c21.513,0,42.377,4.211,62.012,12.516,9.438,3.992,18.542,8.934,27.059,14.687,8.439,5.701,16.374,12.249,23.586,19.461,7.212,7.212,13.76,15.148,19.461,23.586,5.754,8.517,10.695,17.621,14.688,27.059,8.305,19.636,12.516,40.499,12.516,62.012s-4.211,42.377-12.516,62.012c-3.992,9.438-8.934,18.542-14.688,27.059-5.701,8.439-12.248,16.374-19.461,23.586-7.212,7.212-15.148,13.76-23.586,19.461-8.517,5.754-17.621,10.695-27.059,14.687-19.635,8.305-40.499,12.516-62.012,12.516s-42.377-4.211-62.012-12.516c-9.438-3.992-18.542-8.934-27.059-14.687-8.439-5.701-16.374-12.249-23.586-19.461-7.212-7.212-13.76-15.148-19.461-23.586-5.754-8.517-10.695-17.621-14.687-27.059-8.305-19.635-12.516-40.499-12.516-62.012s4.211-42.377,12.516-62.012c3.992-9.438,8.934-18.542,14.687-27.059,5.701-8.438,12.249-16.374,19.461-23.586,7.212-7.212,15.148-13.76,23.586-19.461,8.517-5.754,17.621-10.695,27.059-14.687,19.635-8.305,40.499-12.516,62.012-12.516M169.492,0C75.884,0,0,75.884,0,169.492s75.884,169.492,169.492,169.492,169.492-75.884,169.492-169.492S263.099,0,169.492,0h0Z" fill="#32373c"/>
    <path d="M28.249,169.486c0,55.904,32.487,104.221,79.607,127.113L40.479,112.006c-7.837,17.564-12.23,37.003-12.23,57.481ZM264.842,162.363c0-17.461-6.272-29.546-11.644-38.952-7.16-11.64-13.874-21.488-13.874-33.127,0-12.981,9.844-25.067,23.719-25.067.627,0,1.22.076,1.829.114-25.129-23.025-58.609-37.083-95.38-37.083-49.347,0-92.757,25.32-118.013,63.66,3.316.105,6.441.171,9.09.171,14.77,0,37.645-1.796,37.645-1.796,7.61-.446,8.51,10.74.903,11.639,0,0-7.654.896-16.164,1.342l51.432,152.992,30.914-92.7-22.004-60.292c-7.61-.446-14.814-1.342-14.814-1.342-7.614-.45-6.722-12.085.896-11.639,0,0,23.32,1.796,37.198,1.796,14.77,0,37.648-1.796,37.648-1.796,7.614-.446,8.51,10.74.9,11.639,0,0-7.662.896-16.164,1.342l51.044,151.826,14.571-46.17c6.474-20.178,10.269-34.473,10.269-46.559ZM171.973,181.841l-42.384,123.138c12.658,3.724,26.04,5.755,39.903,5.755,16.448,0,32.226-2.839,46.906-8.008-.378-.604-.726-1.246-1.014-1.947l-43.411-118.939ZM293.437,101.728c.606,4.498.95,9.324.95,14.523,0,14.327-2.684,30.439-10.744,50.588l-43.138,124.728c41.991-24.481,70.23-69.974,70.23-122.08,0-24.557-6.275-47.642-17.298-67.758Z" fill="#32373c"/>
  </g>
</svg>